<?xml version="1.0" encoding="iso-8859-1"?>
<!-- Generator: Adobe Illustrator 16.0.4, SVG Export Plug-In . SVG Version: 6.00 Build 0)  -->
<!DOCTYPE svg PUBLIC "-//W3C//DTD SVG 1.1//EN" "http://www.w3.org/Graphics/SVG/1.1/DTD/svg11.dtd">
<svg version="1.1" id="Layer_1" xmlns="http://www.w3.org/2000/svg" xmlns:xlink="http://www.w3.org/1999/xlink" x="0px" y="0px"
	 width="78px" height="30.357px" viewBox="0 0 78 30.357" style="enable-background:new 0 0 78 30.357;" xml:space="preserve">
<path style="fill:#7E796D;" d="M0,15.047c0,4.989,0,9.972,0,14.948h0.145C0.94,30.02,1.862,30.05,2.91,30.086
	c1.048,0.036,1.934-0.055,2.656-0.272c1.229-0.362,1.982-1.165,2.259-2.41c0.277-1.244,0.416-2.47,0.416-3.678
	c0-0.701,0-1.407,0-2.12c0-0.712,0-1.432,0-2.156c0-0.821-0.061-1.685-0.181-2.591c-0.121-0.906-0.397-1.685-0.831-2.337
	c0.434-0.628,0.71-1.389,0.831-2.283c0.12-0.894,0.181-1.776,0.181-2.646c0-0.072,0-0.326,0-0.761c0-0.435,0-0.821,0-1.16
	c0-0.218,0-0.465,0-0.743c0-0.277,0-0.465,0-0.562c0-1.208-0.139-2.434-0.416-3.678c-0.277-1.244-1.03-2.047-2.259-2.41
	C4.844,0.062,3.94-0.028,2.855,0.008C1.771,0.044,0.832,0.062,0.036,0.062H0l0,0l0,0l0,0C0,5.063,0,10.058,0,15.047z M5.079,16.768
	c0.132,0.532,0.199,1.063,0.199,1.595c0,1.087,0,2.168,0,3.243c0,1.075,0,2.145,0,3.207c0,0.58-0.072,1.136-0.217,1.667
	c-0.145,0.532-0.65,0.797-1.518,0.797H3.037c0-1.884,0-3.774,0-5.671c0-1.896,0-3.787,0-5.671c0.265,0,0.47-0.012,0.614-0.036
	C4.47,15.947,4.946,16.237,5.079,16.768z M3.542,2.816c0.868,0,1.374,0.266,1.518,0.797C5.205,4.145,5.277,4.701,5.277,5.28
	c0,0.895,0,1.794,0,2.7c0,0.906,0,1.806,0,2.7c0,0.58-0.072,1.136-0.217,1.667c-0.145,0.532-0.65,0.797-1.518,0.797H3.037
	c0-1.715,0-3.431,0-5.146s0-3.443,0-5.182H3.542z"/>
<path style="fill:#7E796D;" d="M30.362,28.473c0-0.29,0-0.809,0-1.558h-1.879c-0.892,0-1.41-0.229-1.555-0.688
	s-0.217-0.966-0.217-1.522c0-4.083,0.006-8.19,0.018-12.321s0.018-8.238,0.018-12.321c-0.555,0-1.054,0-1.5,0
	c-0.446,0-0.934,0-1.464,0c0,3.986,0,7.955,0,11.904c0,3.95,0,7.895,0,11.832c0,1.377,0.121,2.567,0.362,3.569
	c0.24,1.003,1,1.843,2.277,2.519c0.361,0.169,0.928,0.235,1.699,0.199s1.518-0.066,2.241-0.091
	C30.362,29.271,30.362,28.763,30.362,28.473z"/>
<path style="fill:#7E796D;" d="M49.084,26.553c-0.096-0.435-0.145-0.906-0.145-1.414c0-4.059,0.006-8.226,0.018-12.502
	c0.012-4.276,0.018-8.467,0.018-12.575c-0.554,0-1.054,0-1.5,0s-0.934,0-1.464,0c0,3.986,0,7.985,0,11.995c0,4.011,0,7.997,0,11.958
	c0,1.377,0.121,2.567,0.361,3.57s1,1.842,2.277,2.519c0.337,0.169,0.807,0.253,1.41,0.253c0.65,0,1.168-0.084,1.554-0.253
	c1.252-0.676,2.006-1.516,2.259-2.519s0.379-2.192,0.379-3.57c0-3.962,0-7.948,0-11.958c0-4.01,0-8.009,0-11.995
	c-0.555,0-1.055,0-1.5,0c-0.446,0-0.934,0-1.464,0c0,4.107,0,8.299,0,12.575c0,4.276,0.012,8.444,0.036,12.502
	c0,0.507-0.049,0.985-0.145,1.432c-0.097,0.447-0.446,0.695-1.048,0.743C49.53,27.241,49.181,26.987,49.084,26.553z"/>
<path style="fill:#7E796D;" d="M78,28.491c0-0.277,0-0.803,0-1.576h-3.506c-0.892,0-1.41-0.223-1.554-0.67
	c-0.145-0.447-0.217-0.96-0.217-1.54l0.036-8.371v-0.399c0.506,0,0.897,0.006,1.175,0.018c0.277,0.013,0.681,0.006,1.211-0.018
	v-2.827h-2.386c0-1.305-0.006-2.609-0.018-3.914c-0.012-1.305-0.018-2.609-0.018-3.914c0-0.555,0.072-1.105,0.217-1.648
	c0.145-0.544,0.663-0.815,1.554-0.815H78c0-0.652,0-1.111,0-1.377c0-0.265,0-0.725,0-1.377c-0.795,0-1.741-0.018-2.837-0.054
	c-1.097-0.036-2.006,0.054-2.729,0.272c-1.229,0.362-1.976,1.166-2.241,2.41c-0.265,1.245-0.397,2.47-0.397,3.678
	c0,2.899,0,5.804,0,8.715c0,2.912,0,5.816,0,8.715c0,1.45,0.168,2.736,0.506,3.859s1.048,1.866,2.133,2.229
	c0.795,0.193,1.729,0.26,2.801,0.199c1.072-0.06,1.994-0.091,2.765-0.091l0,0C78,29.271,78,28.77,78,28.491z"/>
</svg>
